IKResults
version=1
nRows=7
nColumns=40
inDegrees=yes

Units are S.I. units (second, meters, Newtons, ...)
Angles are in degrees.

endheader
time	pelvis_tilt	pelvis_list	pelvis_rotation	pelvis_tx	pelvis_ty	pelvis_tz	hip_flexion_r	hip_adduction_r	hip_rotation_r	knee_angle_r	knee_angle_r_beta	ankle_angle_r	subtalar_angle_r	mtp_angle_r	hip_flexion_l	hip_adduction_l	hip_rotation_l	knee_angle_l	knee_angle_l_beta	ankle_angle_l	subtalar_angle_l	mtp_angle_l	lumbar_extension	lumbar_bending	lumbar_rotation	arm_flex_r	arm_add_r	arm_rot_r	elbow_flex_r	pro_sup_r	wrist_flex_r	wrist_dev_r	arm_flex_l	arm_add_l	arm_rot_l	elbow_flex_l	pro_sup_l	wrist_flex_l	wrist_dev_l
      0.26000000	     17.01383268	      7.35147268	     -6.64094204	     -0.74509675	      0.92861321	     -1.44747303	    -22.23205410	     -8.99781850	     -6.28058941	    -51.76132646	     -0.90340557	    -17.90269873	    -18.55278451	     23.60573502	      2.65275604	     -6.91653883	     11.52288524	    -21.95042564	     -0.38310720	      3.98590496	      8.34247389	     -4.69788233	    -20.96959381	    -10.88845048	      3.01840612	     -5.14378264	    -11.64750721	     -0.85091776	     43.65490456	     89.95437384	      0.00000000	      0.00000000	    -14.16523924	      7.41163558	      8.77226356	     11.91414032	     89.95437384	      0.00000000	      0.00000000
      0.27000000	     17.29399455	      7.20726636	     -6.67553329	     -0.73003678	      0.93104348	     -1.44838532	    -21.03915148	     -8.74371548	     -5.32380642	    -53.65897360	     -0.93652576	    -18.36544680	    -18.52856798	     23.41001350	      1.18414249	     -7.11659165	     11.28366711	    -21.75153810	     -0.37963596	      4.60996071	      7.84943326	     -4.73585880	    -21.17131506	    -10.74350433	      2.75042763	     -5.28139676	    -11.45270267	     -0.48317125	     41.88462415	     89.95437384	      0.00000000	      0.00000000	    -13.46759891	      7.49988796	      8.40900704	     11.79302035	     89.95437384	      0.00000000	      0.00000000
      0.28000000	     17.53079128	      6.89672248	     -6.85094089	     -0.71533484	      0.93348203	     -1.44893722	    -19.77158391	     -8.20810528	     -4.05270488	    -55.42817485	     -0.96740415	    -15.90590718	    -18.41472175	     22.69130661	     -0.37082113	     -7.09837512	     11.28645740	    -21.33206624	     -0.37231479	      5.19734622	      7.42653813	     -4.71502494	    -21.35395784	    -10.45956668	      2.67547019	     -5.41359553	    -11.31438560	     -0.07230332	     40.15040359	     89.95437384	      0.00000000	      0.00000000	    -12.67214671	      7.60826324	      7.89444505	     11.68880613	     89.95437384	      0.00000000	      0.00000000
      0.29000000	     17.77862427	      6.52502974	     -7.09405308	     -0.70064440	      0.93604668	     -1.44934984	    -18.52959206	     -7.64103402	     -2.82417737	    -56.77109423	     -0.99084251	    -13.32238058	    -18.11357790	     21.96497395	     -2.08701660	     -6.97538569	     11.60042438	    -20.66637613	     -0.36069631	      5.80199903	      6.95157777	     -4.70102652	    -21.52251712	    -10.12828384	      2.74175367	     -5.61852655	    -11.22607251	      0.38536149	     38.43153420	     89.95437384	      0.00000000	      0.00000000	    -11.79081837	      7.71598093	      7.36556967	     11.61867951	     89.95437384	      0.00000000	      0.00000000
      0.30000000	     18.32671285	      6.11577557	     -7.64913349	     -0.68575580	      0.93905767	     -1.44940614	    -17.58794623	     -7.23238912	     -1.57150441	    -57.72064785	     -1.00741535	    -11.09626926	    -17.76695475	     21.25813689	     -4.30652741	     -6.77256640	     12.75629355	    -19.70351481	     -0.34389121	      6.00631346	      5.89246171	     -4.75550852	    -21.93893095	     -9.85754680	      3.12291414	     -6.03726417	    -11.25692666	      0.90122024	     37.05937991	     89.95437384	      0.00000000	      0.00000000	    -10.92632180	      7.82383362	      6.48116713	     11.75815789	     89.95437384	      0.00000000	      0.00000000
      0.31000000	     18.43265665	      5.56017350	     -7.71826651	     -0.67170279	      0.94162455	     -1.45014439	    -16.15381257	     -6.40825531	     -0.67363384	    -58.49400941	     -1.02091306	     -9.01045121	    -17.86681207	     20.70461584	     -5.91624929	     -6.41876095	     12.84925938	    -18.94653680	     -0.33067945	      6.51411201	      5.27505254	     -4.78553211	    -22.08351728	     -9.23020880	      3.13890346	     -6.19647185	    -11.22725285	      1.30671886	     35.33193241	     89.95437384	      0.00000000	      0.00000000	     -9.87388321	      7.87372245	      6.10212165	     11.83530645	     89.95437384	      0.00000000	      0.00000000
      0.32000000	     18.81213894	      4.89077307	     -8.06329326	     -0.65722353	      0.94453173	     -1.45034285	    -15.12924658	     -5.54146742	      0.41512398	    -58.82289068	     -1.02665312	     -6.92884706	    -17.70303661	     20.22236417	     -7.94174370	     -5.92181897	     13.73555858	    -18.01396615	     -0.31440302	      6.65763361	      4.02841175	     -4.97333298	    -22.44103965	     -8.60584572	      3.43916534	     -6.58094912	    -11.28754766	      1.79817430	     33.94129157	     89.95437384	      0.00000000	      0.00000000	     -8.92929933	      7.95268178	      5.61865924	     12.16570063	     89.95437384	      0.00000000	      0.00000000
